<?xml version="1.0" encoding="utf-8"?>
<!-- Generator: Adobe Illustrator 26.2.1, SVG Export Plug-In . SVG Version: 6.00 Build 0)  -->
<svg version="1.1" id="Layer_1" xmlns="http://www.w3.org/2000/svg" xmlns:xlink="http://www.w3.org/1999/xlink" x="0px" y="0px"
	 viewBox="0 0 142.1 213.2" style="enable-background:new 0 0 142.1 213.2;" xml:space="preserve">
<style type="text/css">
	.st0{fill:#06BC84;}
</style>
<g>
	<g>
		<path class="st0" d="M81,66.8h-2.8v65.4h11.4v-30.7c0-3.6,2.4-6.6,5.7-7.3v-2.9c-4.8,0.7-8.5,5-8.5,10.1v27.8H81V66.8z"/>
		<path class="st0" d="M78.2,45.4V64H81V45.4c0-5-3.7-9.1-8.5-9.8v2.9C75.7,39.1,78.2,41.9,78.2,45.4z"/>
		<polygon class="st0" points="64,89.6 61.1,89.6 61.1,129.4 55.4,129.4 55.4,112.3 52.6,112.3 52.6,132.2 64,132.2 		"/>
		<path class="st0" d="M64,86.7V45.4c0-3.4,2.4-6.3,5.7-7v-2.9c-4.8,0.7-8.5,4.8-8.5,9.8v41.3H64z"/>
		<path class="st0" d="M75.3,86.7V45.3c0-1.8-1.2-3.4-2.8-4l0,45.4H75.3z"/>
		<path class="st0" d="M103.8,101.2v25.3h2.8v-25.3c0-2.7-1.1-5.4-3.1-7.3c-1.5-1.4-3.4-2.3-5.4-2.6v2.9c1.3,0.3,2.5,0.9,3.4,1.8
			C103,97.4,103.8,99.2,103.8,101.2z"/>
		<path class="st0" d="M95.7,140.7H78.2v2.8h17.5c2.9,0,5.2-2.3,5.2-5.2v-37c0-1.9-1.2-3.6-2.8-4.2v4.1c0,0,0,0,0,0.1v37
			C98.1,139.7,97,140.7,95.7,140.7z"/>
		<path class="st0" d="M92.4,101.2v25.3h2.8v-25.3c0,0,0-0.1,0-0.1v-3.9c-0.6,0.2-1.1,0.5-1.5,0.9C92.9,98.9,92.4,100.1,92.4,101.2z
			"/>
		<polygon class="st0" points="78.2,137.9 95.2,137.9 95.2,129.4 92.4,129.4 92.4,135 78.2,135 		"/>
		<path class="st0" d="M41.2,80.4v29h2.8v-33C42.4,77,41.2,78.6,41.2,80.4z"/>
		<polygon class="st0" points="66.8,66.8 66.8,174.8 35.5,174.8 35.5,177.7 69.7,177.7 69.6,66.8 		"/>
		<path class="st0" d="M38.4,132.2V80.4c0-3.4,2.4-6.3,5.7-7v-2.9c-4.8,0.7-8.5,4.8-8.5,9.8v51.8H38.4z"/>
		<polygon class="st0" points="75.3,89.6 72.5,89.6 72.5,177.7 106.6,177.7 106.6,174.8 75.3,174.8 		"/>
		<path class="st0" d="M66.8,45.3V64h2.8l0-22.7C68,41.9,66.8,43.4,66.8,45.3z"/>
		<path class="st0" d="M96.7,149.3c5.5,0,10-4.5,10-10v-10h-2.8v10c0,3.9-3.2,7.1-7.1,7.1H78.2V172h28.4v-2.8H81v-19.9H96.7z"/>
		<path class="st0" d="M52.6,80.4v29h2.8v-29c0-5-3.7-9.2-8.5-9.8v2.9C50.1,74.1,52.6,77,52.6,80.4z"/>
		<path class="st0" d="M64,146.4H45.5c-3.9,0-7.1-3.2-7.1-7.1V135h-2.8v4.3c0,5.5,4.5,10,10,10h15.6v19.9H35.5v2.8H64V146.4z"/>
		<path class="st0" d="M64,137.9V135H49.7V80.4c0-1.9-1.2-3.4-2.9-4l0,61.5H64z"/>
		<path class="st0" d="M44.1,138.4v-26.1h-2.8v26.1c0,2.9,2.3,5.2,5.2,5.2H64v-2.8H46.4C45.1,140.7,44.1,139.7,44.1,138.4z"/>
	</g>
</g>
</svg>
